<svg width="29" height="37" viewBox="0 0 29 37" fill="none" xmlns="http://www.w3.org/2000/svg">
<path d="M2.31869 0.124954C1.25873 0.455235 0.444549 1.28477 0.129631 2.33706C-0.0470296 2.92849 -0.0393487 16.1781 0.129631 17.1843C0.575124 19.7343 2.20348 21.9925 4.46935 23.2215C5.88263 23.9895 7.31896 24.2814 9.71541 24.2814C10.2531 24.2814 10.6909 24.2968 10.6909 24.3198C10.6909 24.3429 10.5757 24.8191 10.4297 25.3798C9.59251 28.6365 9.21615 31.7242 9.49266 33.0377C9.9612 35.2498 11.8661 36.8244 14.0705 36.832C14.8539 36.832 15.5299 36.6861 16.1981 36.3865C16.8587 36.0793 17.02 35.5954 16.5591 35.2882C16.3671 35.1653 16.3364 35.1653 15.9984 35.2958C14.9538 35.7029 14.7848 35.7413 14.1857 35.749C12.5727 35.749 11.2362 34.8196 10.6755 33.2835C10.2454 32.1313 10.6602 28.6135 11.6433 24.9727L11.82 24.3198L14.1319 24.2968C15.407 24.2891 16.4516 24.2968 16.4516 24.3198C16.4516 24.3352 16.5514 24.7269 16.6743 25.1801C17.2581 27.3384 17.6498 29.5352 17.742 31.0867C17.8111 32.3771 17.7496 32.9455 17.4424 33.6368C17.1659 34.282 17.1813 34.5201 17.5423 34.7198C17.8495 34.8964 18.0953 34.7428 18.3718 34.1898C18.7482 33.4447 18.8403 32.9609 18.8403 31.8241C18.8403 30.1573 18.464 27.7916 17.8111 25.2569L17.5576 24.2814H18.5561C20.6223 24.2814 21.9741 24.0587 23.1724 23.5287C25.9145 22.3228 27.8424 19.719 28.1957 16.7157C28.3032 15.8017 28.3109 3.18964 28.2034 2.61357C27.9806 1.43839 27.0973 0.478275 25.9068 0.117275C25.3768 -0.0440254 2.83331 -0.0363426 2.31869 0.124954ZM4.4079 3.48151L4.43094 5.88564H4.96861H5.50627L5.52931 3.48151L5.54467 1.08507H7.27288H9.00108V3.50455V5.92404H9.53875H10.0764V3.50455V1.08507H11.843H13.6096V3.50455V5.92404H14.1473H14.685V3.50455V1.08507H16.4132H18.1414L18.1567 3.48151L18.1798 5.88564H18.7174H19.2551L19.2781 3.48151L19.2935 1.08507H21.0217H22.7499V3.50455V5.92404H23.2876H23.8252V3.50455V1.08507H24.6164C25.1387 1.08507 25.5304 1.12347 25.7685 1.20796C26.2294 1.36158 26.7363 1.81475 26.9744 2.28329L27.1664 2.65966L27.1895 6.01621L27.2125 9.38045H18.6944C10.1916 9.38045 10.1763 9.38045 9.96888 9.54175C9.72309 9.73378 9.70005 10.0794 9.92279 10.3022C10.0764 10.4558 10.1763 10.4558 18.6406 10.4558H27.2048L27.1895 13.1595L27.1664 15.8708L14.1319 15.8939L1.08975 15.9092V13.1825V10.4558H4.69209C8.07937 10.4558 8.30212 10.4481 8.4711 10.3175C8.70921 10.1178 8.70921 9.71841 8.4711 9.51871C8.30212 9.38813 8.07937 9.38045 4.69209 9.38045H1.08975V6.09302C1.09743 2.56749 1.10511 2.5214 1.50451 1.94533C1.93465 1.33086 2.51071 1.09275 3.6014 1.08507H4.39254L4.4079 3.48151ZM27.0512 17.1228C27.0512 17.4147 26.7286 18.3671 26.406 19.02C25.4613 20.9325 23.8022 22.3074 21.7053 22.9142L21.0985 23.0909H14.1089H7.11926L6.44334 22.8758C5.1299 22.4687 4.13139 21.8543 3.19431 20.8865C2.15739 19.8265 1.55828 18.7051 1.21264 17.1919L1.16655 16.9846H14.1089C26.3907 16.9846 27.0512 16.9922 27.0512 17.1228Z" fill="black"/>
<path d="M4.43198 11.6002C2.74986 12.3683 3.24912 14.8646 5.08486 14.8569C5.7915 14.8569 6.30612 14.5343 6.6364 13.8814C6.87451 13.4206 6.81306 12.6448 6.50583 12.207C6.03729 11.5541 5.12326 11.2853 4.43198 11.6002ZM5.56876 12.7677C5.72237 12.9597 5.73774 13.3591 5.5918 13.5435C5.46122 13.7201 5.12326 13.843 4.95428 13.7816C4.37821 13.5819 4.3014 12.9213 4.81603 12.6218C5.02341 12.4989 5.39978 12.568 5.56876 12.7677Z" fill="black"/>
<path d="M22.6128 11.5542C21.8063 11.8537 21.2993 12.7831 21.5144 13.5743C21.9292 15.1104 23.9953 15.3332 24.702 13.9276C25.3779 12.5988 24.0107 11.0472 22.6128 11.5542ZM23.5421 12.6833C23.9262 12.9828 23.8647 13.5282 23.4269 13.7202C22.7433 14.0044 22.2287 13.1364 22.8048 12.6833C22.9123 12.5988 23.0813 12.5297 23.1735 12.5297C23.2656 12.5297 23.4346 12.5988 23.5421 12.6833Z" fill="black"/>
<path d="M13.2568 30.065C12.4272 30.4645 11.9894 31.0866 11.9356 31.9469C11.8742 32.9147 12.289 33.652 13.1492 34.0975C13.6178 34.3433 13.6869 34.3587 14.2246 34.328C14.9005 34.2896 15.3152 34.1052 15.7607 33.6444C16.7823 32.5921 16.4597 30.7947 15.1309 30.1111C14.9005 29.9959 14.624 29.9268 14.2246 29.9114C13.733 29.8884 13.587 29.9114 13.2568 30.065ZM14.816 31.1788C15.5073 31.6704 15.4151 32.7841 14.6547 33.1451C13.8635 33.5215 12.9956 32.9838 12.9956 32.1159C12.9956 31.7011 13.203 31.3324 13.5486 31.1097C13.8789 30.9099 14.4857 30.9407 14.816 31.1788Z" fill="black"/>
</svg>
