<svg width="36" height="36" viewBox="0 0 36 36" fill="none" xmlns="http://www.w3.org/2000/svg">
<path d="M16.8954 0.0359955C11.9596 0.381458 7.51208 2.58943 4.3718 6.24685C3.98114 6.69746 3.44775 7.3959 3.17729 7.79393C2.62887 8.60502 2.58379 8.83033 2.93689 9.09318C3.25993 9.3335 3.46277 9.22085 3.89099 8.59751C4.22906 8.08682 4.83758 7.31328 5.39352 6.66742L5.6189 6.40456L8.85684 9.63391C10.6298 11.4063 12.0873 12.8933 12.0873 12.9233C12.0873 12.9609 11.937 13.1787 11.7567 13.4115C10.9979 14.4028 10.5397 15.5143 10.3293 16.8436L10.2392 17.4444L5.63392 17.4669L1.02116 17.482L1.07375 16.8286C1.224 14.9135 1.61466 13.2763 2.33588 11.5265C2.73404 10.5426 2.74156 10.3399 2.38846 10.1521C2.06542 9.98688 1.80248 10.1371 1.5771 10.6102C0.0294957 13.8321 -0.421262 18.2555 0.41264 21.9805C0.998626 24.579 2.19314 27.0874 3.88348 29.2353C4.41688 29.9112 6.11473 31.6085 6.79087 32.1417C9.23999 34.0718 12.1324 35.3185 15.3553 35.8592C16.5197 36.0469 19.4422 36.0469 20.6141 35.8592C22.3345 35.5738 23.8896 35.1157 25.3997 34.4548C26.5191 33.9591 26.8721 33.7413 26.9322 33.5085C26.9999 33.2457 26.8571 32.9678 26.6167 32.8777C26.4439 32.8101 26.2711 32.8627 25.3546 33.2982C24.1826 33.854 22.7327 34.3572 21.6058 34.5975C20.8996 34.7477 19.1867 34.9805 18.7585 34.9805H18.5481V30.3693V25.7656L19.0139 25.713C20.2836 25.5854 21.726 24.962 23.0332 23.9782C23.1083 23.9181 23.9197 24.6917 26.3763 27.1475L29.6293 30.3993L29.3663 30.6246C29.2236 30.7523 28.8254 31.0753 28.4799 31.3531C28.1343 31.6235 27.8187 31.9314 27.7812 32.0215C27.6459 32.397 27.984 32.7876 28.3672 32.6899C28.8405 32.5698 31.0341 30.5796 31.9883 29.4005C33.7537 27.2226 35.1135 24.3612 35.6319 21.7402C35.9399 20.2232 36 19.6223 36 18.0452C36 15.4993 35.5793 13.3289 34.6628 11.1359C32.717 6.48717 28.9156 2.84477 24.1751 1.0799C22.0115 0.283829 19.1867 -0.129227 16.8954 0.0359955ZM17.4964 5.68359V10.2497L17.1057 10.3023C15.8511 10.46 14.2735 11.0909 13.3269 11.8118L12.8761 12.1498L9.62313 8.90543L6.37767 5.65355L6.59554 5.4658C8.97705 3.45309 11.1332 2.28902 13.7401 1.60561C14.8519 1.32022 17.2259 0.989777 17.4438 1.09492C17.4738 1.10994 17.4964 3.17522 17.4964 5.68359ZM20.8019 1.29769C23.2586 1.70324 25.7453 2.72461 27.7887 4.17406C28.4273 4.62467 29.5917 5.60098 29.5917 5.67608C29.5917 5.70612 28.1418 7.1781 26.3763 8.94298L23.1534 12.1648L22.635 11.7893C21.5682 11.0158 20.3963 10.5276 19.1717 10.3399L18.5481 10.2497V5.65355V1.06488L19.3219 1.12496C19.7427 1.155 20.4113 1.23761 20.8019 1.29769ZM30.8088 6.90774C33.1752 9.61138 34.6252 13.0886 34.9107 16.746L34.9708 17.482H30.3805H25.7828L25.6927 16.8586C25.5048 15.6345 25.0165 14.4629 24.2427 13.3965L23.8671 12.8783L27.09 9.65644C28.8555 7.89156 30.328 6.44211 30.3505 6.44211C30.3805 6.44211 30.5834 6.6524 30.8088 6.90774ZM19.8478 11.579C24.1901 12.8783 26.0533 17.8725 23.6192 21.6876C21.8387 24.4739 18.1274 25.5253 15.19 24.0833C13.5072 23.2647 12.2075 21.7627 11.629 19.9678C10.5547 16.6258 12.3051 13.051 15.6558 11.7442C16.5423 11.4063 17.0531 11.3237 18.1725 11.3537C18.9914 11.3763 19.3144 11.4213 19.8478 11.579ZM10.2993 19.0591C10.427 20.2006 11.043 21.7026 11.7717 22.679C11.9445 22.9043 12.0873 23.1221 12.0873 23.1596C12.0873 23.1972 10.6373 24.6766 8.86436 26.449L5.64895 29.6634L5.11555 29.0325C2.72653 26.2312 1.33669 22.8517 1.08126 19.2243L1.02868 18.5334L5.64144 18.5484L10.2467 18.5709L10.2993 19.0591ZM34.8956 19.337C34.6928 22.7841 33.2278 26.3214 30.8764 29.0625L30.3805 29.6408L27.1276 26.3889L23.8671 23.1371L24.2653 22.6189C24.9714 21.6801 25.595 20.118 25.7227 18.9615L25.7678 18.5334H30.358H34.9482L34.8956 19.337ZM13.5147 24.3537C14.5514 25.0897 15.6483 25.5253 16.8503 25.698L17.4588 25.7806L17.4814 30.3843L17.4964 34.988L16.8428 34.943C13.1991 34.6876 9.80344 33.2982 6.99371 30.91L6.36265 30.3768L9.57806 27.1625C11.351 25.3901 12.8235 23.9407 12.8611 23.9407C12.8911 23.9407 13.1841 24.1284 13.5147 24.3537Z" fill="black"/>
</svg>
