<svg width="40" height="37" viewBox="0 0 40 37" fill="none" xmlns="http://www.w3.org/2000/svg">
<path d="M22.3185 0.0479698C21.4251 0.208263 20.3126 0.680717 19.6805 1.17004C19.4951 1.31347 19.0316 1.72686 18.6607 2.09807L17.9781 2.75613L17.6915 2.58739C17.287 2.35961 16.8656 2.29211 16.4273 2.41022C16.1155 2.49459 15.8711 2.69707 14.9019 3.65885C13.7978 4.77248 13.7472 4.83154 13.663 5.28712C13.5871 5.62458 13.5871 5.82706 13.6545 5.9958C13.7472 6.23202 13.6967 6.29108 9.39841 10.5938C4.6956 15.3098 4.81359 15.1664 5.2687 15.6136C5.37827 15.7317 5.55525 15.8245 5.66482 15.8245C5.79966 15.8245 7.00486 14.6687 10.1738 11.5049L14.4973 7.17692L19.8744 12.5595C24.6615 17.3515 25.2683 17.9336 25.5043 17.9336C25.8329 17.9336 26.0436 17.7058 26.0436 17.3431C26.0436 17.0731 25.6391 16.6513 20.3969 11.3952C17.2954 8.28212 14.7502 5.70895 14.7502 5.6752C14.7502 5.30399 16.5453 3.50699 16.9162 3.50699C16.9499 3.50699 20.6919 7.21911 25.2177 11.7496C30.4009 16.9381 33.4603 20.0597 33.4603 20.1609C33.4603 20.3803 31.623 22.2363 31.4038 22.2363C31.3027 22.2363 30.5357 21.5361 29.3221 20.3381C27.2573 18.2795 27.173 18.2289 26.76 18.6507C26.642 18.7604 26.5493 18.9376 26.5493 19.0388C26.5493 19.1738 27.0297 19.7222 28.1675 20.8611L29.7941 22.4894L23.3467 28.9519C16.2588 36.0555 16.5285 35.8193 15.5087 35.8193C14.4889 35.8193 14.7417 36.0471 7.8308 29.1037C4.36691 25.6278 1.46769 22.6497 1.39184 22.4894C1.30756 22.3291 1.22328 21.941 1.19799 21.6373C1.13057 20.7008 1.33284 20.3718 3.07743 18.6086C4.3332 17.3431 4.55233 17.0815 4.55233 16.8622C4.55233 16.4403 4.15621 16.1957 3.74324 16.3729C3.43141 16.5078 0.869304 19.1148 0.549041 19.6125C-0.133625 20.7093 -0.184192 21.9663 0.422621 23.1728C0.549041 23.4343 2.52961 25.4675 7.02172 29.9727C13.7557 36.7051 13.6882 36.6376 14.6827 36.9161C15.3064 37.0848 16.2841 36.992 16.9414 36.7051C17.4555 36.4774 17.8432 36.1146 24.0631 29.8968L30.6453 23.3246L31.1173 23.3837C31.8842 23.4765 32.1118 23.35 33.2833 22.2026C33.8901 21.6036 34.3873 21.0383 34.48 20.8443C34.6992 20.3718 34.6823 19.8994 34.4295 19.4016L34.2188 18.9882L35.011 18.1867C36.4606 16.7188 37 15.5039 37 13.6647C37 12.6101 36.7977 11.7749 36.3173 10.8216C35.9718 10.1551 35.7779 9.94414 31.6145 5.75957C29.221 3.34669 27.0466 1.2291 26.7769 1.04349C26.1953 0.646969 25.5801 0.360123 24.8974 0.174519C24.2991 0.0142212 22.8663 -0.0532722 22.3185 0.0479698ZM24.9059 1.44001C25.2683 1.55812 25.7571 1.78592 25.9931 1.94621C26.2291 2.10651 28.3613 4.18192 30.7296 6.56105C34.6065 10.4503 35.07 10.9481 35.306 11.4374C35.6852 12.222 35.8201 12.8042 35.8201 13.6647C35.8201 15.2423 35.2807 16.356 33.8058 17.8071L33.376 18.2205L32.8282 17.6805C32.5247 17.3853 32.2803 17.0984 32.2803 17.0562C32.2803 17.014 32.6006 16.6513 32.9883 16.2463C33.7468 15.4533 33.9322 15.1749 34.1008 14.5168C34.3452 13.6225 34.1851 12.6776 33.6625 11.9014C33.5108 11.6652 31.5555 9.64886 29.3137 7.41315C25.7992 3.90351 25.1756 3.32138 24.7626 3.12734C23.8102 2.69707 22.7652 2.69707 21.8634 3.13578C21.619 3.24545 21.088 3.65885 20.675 4.05537L19.9165 4.76405L19.3518 4.19036L18.7872 3.61666L19.63 2.81519C20.5655 1.91246 21.2903 1.49063 22.2511 1.27128C23.0264 1.09411 24.0799 1.16161 24.9059 1.44001ZM24.1895 4.15661C24.3833 4.23254 25.8919 5.68364 28.5636 8.34118C32.963 12.7367 33.0389 12.821 33.0389 13.6731C33.0389 14.2974 32.7439 14.8374 31.9938 15.5714L31.3533 16.2041L26.0689 10.9144L20.7762 5.61615L21.324 5.05933C22.3775 3.99632 23.1781 3.74321 24.1895 4.15661Z" fill="black"/>
<path d="M12.9412 12.0719C12.8487 12.1055 11.0252 13.8927 8.89076 16.0324C5.2605 19.6572 5 19.9425 5 20.211C5 20.4795 5.35294 20.8571 10.6555 26.1517C13.7563 29.2563 16.4034 31.8575 16.5294 31.9246C16.7311 32.0253 16.7983 32.0253 17.0336 31.9246C17.1933 31.8575 18.9244 30.1877 21.1597 27.9557C24.7227 24.3812 25 24.0876 25 23.8191C25 23.5506 24.6218 23.1562 19.3529 17.8784C16.2437 14.7737 13.5966 12.1726 13.4706 12.1055C13.2185 11.9712 13.1765 11.9712 12.9412 12.0719ZM20.2101 27.2173L16.8067 30.6156L11.5966 25.4133L6.38655 20.211L9.78992 16.8127L13.1933 13.4144L18.4034 18.6167L23.6134 23.8191L20.2101 27.2173Z" fill="black"/>
<path d="M34.9168 22.8713C33.1943 24.5652 32.186 26.3558 32.018 28.0094C31.9087 29.0903 32.3036 30.2276 33.043 30.9374C34.5135 32.349 37.4963 32.357 38.9667 30.9455C40.4455 29.5258 40.3279 27.0657 38.6726 24.7023C37.8156 23.4762 36.3536 22.0001 35.9923 22.0001C35.8578 22.0001 35.5469 22.2502 34.9168 22.8713ZM36.4208 23.7989C37.5215 24.9201 38.3617 26.251 38.6558 27.3318C38.8155 27.9045 38.8323 28.7837 38.6978 29.2516C38.3533 30.4938 36.5552 31.1955 34.9504 30.7277C32.8414 30.1066 32.6061 27.8239 34.3874 25.2508C34.6983 24.791 35.8998 23.3875 35.9839 23.3714C35.9923 23.3714 36.1939 23.565 36.4208 23.7989Z" fill="black"/>
</svg>
