<svg width="39" height="33" viewBox="0 0 39 33" fill="none" xmlns="http://www.w3.org/2000/svg">
<path d="M17.7284 0.110863C15.2803 0.529675 13.2145 1.64651 11.4659 3.486C10.3679 4.63568 9.4326 6.21239 8.95274 7.70698C8.71688 8.42964 8.45662 9.73535 8.44849 10.2281C8.44036 10.8604 8.39969 10.9015 7.55384 11.1889C4.26806 12.3139 1.57599 15.0649 0.534946 18.3415C-0.0994385 20.3535 -0.172637 22.505 0.331618 24.5498C1.53532 29.4524 6.04108 33 11.0592 33C12.7103 33 14.3531 32.614 15.8984 31.8585C17.0778 31.2755 17.8016 30.7745 18.7776 29.8384L19.5096 29.1321L20.1033 29.7316C21.4534 31.0866 23.0393 32.031 24.8449 32.5566C25.829 32.8358 26.3658 32.9261 27.5288 32.9754C31.8069 33.1642 35.8897 30.7171 37.8417 26.7917C38.7282 25.0015 39.143 22.8253 38.9559 20.8544C38.7038 18.1116 37.6383 15.8205 35.7433 13.9071C34.4908 12.6342 33.0838 11.7555 31.449 11.1971L30.6194 10.9179L30.53 10.072C30.408 9.02911 30.2209 8.18328 29.92 7.36207C28.5211 3.50243 25.2272 0.767822 21.185 0.110863C20.3066 -0.0369568 18.5742 -0.0369568 17.7284 0.110863ZM21.7136 1.37551C25.951 2.43486 28.9277 5.83464 29.3995 10.1706L29.4483 10.6305H28.1226C26.7237 10.6305 25.9835 10.7208 24.9262 11.0328C23.0881 11.5666 21.6648 12.3878 20.2903 13.71L19.5177 14.4573L18.7694 13.7428C17.4844 12.5356 16.0774 11.6816 14.4995 11.1642C13.3202 10.7783 12.4093 10.6387 10.9047 10.6305L9.57086 10.6222L9.61966 10.0474C9.64406 9.72714 9.75793 9.11945 9.86366 8.68421C10.8396 4.85741 13.9709 1.95035 17.8423 1.26054C18.802 1.08809 20.8109 1.15379 21.7136 1.37551ZM12.9461 11.9444C14.8655 12.3057 16.6386 13.2583 18.0781 14.6954L18.7857 15.4016L18.4523 15.9683C18.0049 16.7074 17.6308 17.5286 17.3705 18.3415C17.1347 19.0806 16.9151 20.0825 16.9151 20.4192C16.9151 20.8462 16.8338 20.8708 16.175 20.6327C13.2389 19.5733 10.9698 17.1919 10.0182 14.1945C9.74979 13.3486 9.53833 12.1579 9.61966 11.9526C9.65219 11.8623 9.80672 11.813 10.0995 11.7884C10.7746 11.7309 12.2548 11.813 12.9461 11.9444ZM29.3751 11.8623C29.4971 11.9444 29.2205 13.4882 28.9115 14.4162C28.6187 15.2785 28.0412 16.3871 27.4882 17.1426C26.87 17.9884 25.6257 19.1463 24.7636 19.6965C24.1373 20.0907 22.4782 20.8462 22.2342 20.8462C22.1854 20.8462 22.104 20.5424 22.0471 20.1482C21.86 18.785 21.3476 17.3315 20.6482 16.1571C20.4286 15.7876 20.2497 15.4591 20.2497 15.4263C20.2497 15.4016 20.5181 15.106 20.8353 14.7693C22.5188 13.0448 24.7066 12.0183 27.2035 11.7801C27.602 11.7391 29.2856 11.8048 29.3751 11.8623ZM8.52982 12.7984C8.84701 14.8925 9.66033 16.7238 10.9942 18.3333C12.3361 19.9675 14.0929 21.1747 16.0855 21.8234L16.7931 22.0616L16.85 22.7021C17.0127 24.517 17.6959 26.5371 18.5661 27.8182L18.8182 28.1878L17.9561 29.009C15.6463 31.2344 12.6859 32.1952 9.579 31.7271C6.13868 31.2016 3.14568 28.8037 1.84438 25.5271C0.949736 23.2523 0.900938 20.5999 1.73052 18.3744C2.77969 15.5577 4.89431 13.4143 7.64331 12.3796C7.97677 12.2564 8.29396 12.1497 8.34276 12.1415C8.39156 12.1415 8.47289 12.4371 8.52982 12.7984ZM31.4165 12.396C32.1729 12.6917 33.1651 13.2419 33.832 13.7264C34.4827 14.2109 35.6864 15.4673 36.1337 16.1489C38.0531 19.0478 38.3866 22.6775 37.0121 25.8391C36.5322 26.9724 35.8734 27.9085 34.8975 28.9022C33.9947 29.8055 33.5311 30.1586 32.425 30.7417C29.2693 32.4169 25.2353 32.1459 22.283 30.0683C21.5916 29.5756 20.8841 28.9515 20.5262 28.508L20.2415 28.1549L20.5181 27.6786C21.0061 26.8656 21.3558 26.0855 21.6242 25.2643C21.8844 24.4431 22.1203 23.2523 22.1203 22.776C22.1203 22.1026 22.161 22.0534 22.8767 21.8317C23.8039 21.5524 25.2841 20.7887 26.1055 20.1564C28.3503 18.4565 30.0013 15.7548 30.4161 13.1269C30.5625 12.2072 30.5788 12.1415 30.6682 12.1415C30.7089 12.1415 31.0505 12.2564 31.4165 12.396ZM19.9162 17.2165C20.4855 18.3908 20.8271 19.483 20.941 20.5752C21.0061 21.1665 21.0467 21.1336 20.0463 21.1993C19.4852 21.2404 18.0863 21.1583 18.0131 21.0761C17.9561 21.0187 18.192 19.6473 18.3791 18.9574C18.5905 18.2102 19.412 16.4692 19.5258 16.5349C19.5665 16.5677 19.7454 16.8716 19.9162 17.2165ZM20.2578 22.3408L20.9817 22.2751V22.6364C20.9817 23.0881 20.7133 24.4267 20.4937 25.0754C20.3066 25.6338 19.5909 27.0873 19.5096 27.0873C19.4201 27.0873 18.8264 25.9459 18.5986 25.3218C18.3384 24.6237 18.0863 23.5398 18.0131 22.8171L17.9561 22.2751L18.745 22.3408C19.1761 22.3736 19.8593 22.3736 20.2578 22.3408Z" fill="black"/>
</svg>
