<svg width="110" height="139" viewBox="0 0 110 139" fill="none" xmlns="http://www.w3.org/2000/svg">
<path d="M71.917 11.3153C62.8057 9.34666 54.2298 11.0518 45.647 16.463C38.2554 21.1322 32.1742 27.8478 27.5576 36.4707C26.7576 37.9247 25.739 40.0723 25.2559 41.2239L24.3766 43.3373L25.9893 43.8948L27.621 44.4589L27.9958 43.682C28.1969 43.2845 28.648 42.2867 28.9849 41.4967C31.9972 34.6267 37.5605 27.32 43.1629 22.9112C51.07 16.6896 59.6687 14.0584 68.2352 15.2069C71.9912 15.7087 77.1848 17.8888 80.2961 20.2555C91.094 28.4661 95.9343 45.0008 92.3602 61.4834C92.0644 62.892 91.6752 64.5705 91.5306 65.2347L91.2183 66.4453L92.8499 67.0094L94.4816 67.5734L95.1207 65.2946C96.7153 59.6377 97.422 52.7397 97.0515 46.6232C96.7485 41.6013 95.9435 37.7244 94.2162 32.9518C91.2002 24.657 86.3513 18.5305 79.638 14.4791C78.1251 13.5714 73.3614 11.6224 71.917 11.3153Z" fill="white"/>
<path d="M23.0427 50.9024C23.0013 51.0223 19.5753 65.7205 15.439 83.5733C11.3096 101.406 7.87676 116.124 7.8284 116.264C7.75241 116.484 12.8939 118.306 34.4141 125.746C49.0806 130.816 61.1172 134.888 61.1449 134.808C61.1725 134.728 64.864 126.833 69.3224 117.301C73.7878 107.749 77.5069 99.774 77.5829 99.5542C77.7003 99.2145 77.5811 99.1062 76.4821 98.7263C74.8636 98.1667 73.8705 97.2865 73.3436 95.9635C72.8298 94.6674 72.7793 93.1959 73.1467 89.6095C73.4544 86.5841 73.2835 85.7197 72.3044 85.3812C71.5451 85.1187 70.4394 85.3405 70.1399 85.8185C70.017 86.0445 68.7213 89.5336 67.2721 93.5961C64.8366 100.382 64.5549 101.068 63.6441 102.408C60.0822 107.664 54.2264 110.561 48.0197 110.138C45.4608 109.969 42.0847 108.735 39.9356 107.186C36.0947 104.449 33.658 100.497 32.9862 95.9702C32.6263 93.4522 32.7554 91.4612 33.4736 88.8014C33.8373 87.3612 34.009 86.3469 33.9182 86.0918C33.6128 85.2927 33.008 84.9718 31.5917 84.8625C30.6365 84.7783 29.7297 84.5543 28.5185 84.0461C27.0475 83.4481 26.6094 83.1624 25.5777 82.1346C23.4622 79.9716 22.4482 76.7577 22.9626 73.7814C23.0707 73.0806 24.6832 68.1574 26.5414 62.7824L29.9056 53.0513L26.5087 51.8769C24.2907 51.1102 23.0842 50.7825 23.0427 50.9024Z" fill="white"/>
<path d="M29.9359 64.739C26.4176 75.1102 26.383 75.2101 26.5394 76.1813C26.7705 77.6481 27.8216 79.3313 29.0022 80.1869C29.8646 80.7982 30.1843 80.9087 31.1995 81.0136C31.8473 81.081 33.0015 81.301 33.7347 81.5098C35.4746 81.9771 36.6468 82.9863 37.3175 84.6051C37.8513 85.9081 37.8071 86.8771 37.158 89.3371C36.4943 91.9039 36.3818 93.0058 36.6585 95.1819C37.1057 98.8709 39.2347 102.224 42.4937 104.38C48.5404 108.372 56.9607 106.339 60.7827 99.9427C61.3955 98.9466 62.1186 97.0491 63.9975 91.6141C65.3791 87.6178 66.6126 84.3085 66.8707 83.9503C68.1279 82.1255 70.21 81.2795 72.533 81.6128C74.8492 81.9661 76.6542 83.7981 76.9763 86.1017C77.0564 86.711 76.9957 88.5691 76.8503 90.2189C76.6981 91.8888 76.6065 93.5125 76.6159 93.8736C76.64 94.7097 77.2427 95.2312 78.4169 95.4582C79.1777 95.587 79.4389 95.5431 79.6363 95.231C79.902 94.786 89.3671 74.5252 89.5398 74.0256C89.6434 73.7259 87.0727 72.8148 61.5761 64.0003L33.4819 54.2878L29.9359 64.739Z" fill="white"/>
</svg>
