<svg width="126" height="126" viewBox="0 0 126 126" fill="none" xmlns="http://www.w3.org/2000/svg">
<path d="M108.185 0.227577C106.439 0.571724 104.202 1.75166 102.826 3.05449C102.015 3.81653 95.4512 12.8381 84.9056 27.7347C75.7612 40.6401 67.9933 51.5053 67.6737 51.8494C67.3542 52.2182 66.4938 52.8081 65.8055 53.2014C64.7485 53.7668 64.2323 53.8897 62.8065 53.8897C60.0042 53.8897 59.2422 53.3489 52.8509 47.0068C46.6808 40.9105 46.0171 40.4189 43.3869 40.4435C41.1745 40.4435 39.7979 41.1563 37.4135 43.5408L35.3978 45.5565L57.9147 68.0489L80.4071 90.5413L82.3491 88.5501C83.4061 87.4439 84.5123 86.0674 84.8319 85.4774C85.6431 83.8796 85.7168 81.7901 85.0531 79.9711C84.5369 78.6682 83.9469 77.9554 78.7601 72.7194C72.3689 66.2544 71.951 65.6399 71.9264 62.985C71.9264 61.0431 72.8605 59.0519 74.3108 57.8966C74.8762 57.4295 85.6922 49.7354 98.3273 40.763C110.962 31.8152 121.828 23.9736 122.467 23.3591C125.22 20.7043 126.449 16.3533 125.49 12.666C124.802 10.0112 124.015 8.8558 120.476 5.31602C117.747 2.56285 116.837 1.80082 115.535 1.21085C113.027 0.0309219 110.717 -0.264061 108.185 0.227577ZM113.396 8.70831C117.772 10.1832 119.05 16.3533 115.682 19.6964C114.576 20.8272 113.666 21.2942 112.093 21.5892C107.496 22.4496 103.293 18.2215 104.252 13.6738C105.112 9.5441 109.266 7.30715 113.396 8.70831Z" fill="white"/>
<path d="M109.365 13.4526C108.873 13.9442 108.652 14.4113 108.652 14.9521C108.652 15.9353 109.807 17.1644 110.741 17.1644C112.142 17.1644 113.052 16.2795 113.076 14.9275C113.076 12.9364 110.815 12.0268 109.365 13.4526Z" fill="white"/>
<path d="M15.9045 64.804L0 80.7085L3.26939 83.9779L6.51419 87.2227L18.8051 74.9317C27.1875 66.5493 31.2927 62.6162 31.7352 62.5179C32.5218 62.3458 33.8 62.9112 34.1688 63.5995C34.2917 63.8699 34.4146 64.4599 34.4146 64.9024C34.4146 65.6398 33.3576 66.746 22.0745 78.0536L9.70983 90.4183L12.9055 93.6139L16.1011 96.8096L23.3528 89.5825C27.335 85.6003 30.8502 82.2326 31.1452 82.0851C31.4402 81.9376 31.9072 81.8147 32.2022 81.8147C33.4313 81.8147 34.6358 83.3879 34.2917 84.5678C34.1933 84.8874 30.7765 88.4763 26.7205 92.5815L19.2967 100.005L22.5416 103.25L25.8109 106.519L34.98 97.3504C43.3132 89.0171 44.2227 88.2059 44.9602 88.2059C46.1155 88.2059 47.1971 89.3367 47.1971 90.5658C47.1971 91.4507 46.853 91.8441 38.1019 100.62L29.0066 109.715L32.2022 112.911L35.3979 116.106L45.9189 105.61C51.6956 99.8332 56.7349 94.9905 57.1036 94.843C58.5785 94.3022 59.9797 95.3838 59.9797 97.0308C59.9797 97.8666 59.4143 98.4812 49.2866 108.609L38.5935 119.302L41.8629 122.571L45.1077 125.816L61.0367 109.887C69.7879 101.136 76.9412 93.8598 76.9412 93.7369C76.9412 93.4173 32.3989 48.875 32.0793 48.875C31.9318 48.875 24.6802 56.0283 15.9045 64.804Z" fill="white"/>
</svg>
