<svg width="121" height="116" viewBox="0 0 121 116" fill="none" xmlns="http://www.w3.org/2000/svg">
<path d="M4.41989 46.479C4.96158 47.6849 5.79129 48.4911 8.80626 50.8619L12.0288 53.3543L13.1765 51.8837L14.3241 50.4131L11.1225 47.9179C8.13394 45.5863 7.91537 45.3809 7.81633 44.6276C7.71455 43.8534 7.90895 43.5511 12.9247 37.0169C17.7042 30.7903 18.2004 30.193 18.849 30.1077C19.3931 30.0362 24.9327 32.1814 43.2985 39.6008C58.179 45.6052 67.4479 49.2398 68.1395 49.3191C69.418 49.4916 71.0798 49.0177 72.0226 48.2552C72.348 47.9782 74.5789 45.1945 76.975 42.0485C79.3738 38.9234 81.4202 36.3555 81.5457 36.339C81.6504 36.3253 82.3496 36.7867 83.1045 37.3474L84.4776 38.4014L96.0384 23.3651C102.672 14.7237 107.686 8.01927 107.804 7.62063C108.081 6.64771 107.912 5.6907 107.32 4.74688C106.73 3.82397 103.132 1.06166 102.253 0.857842C101.441 0.666692 99.8714 0.873013 99.3241 1.24298C99.0895 1.40153 93.6756 8.30745 87.315 16.5937L75.7179 31.6774L77.1857 32.8041L78.6772 33.949L74.5002 39.4152C72.1922 42.4219 70.0676 45.0426 69.7576 45.275C69.4448 45.4864 68.9355 45.6598 68.6343 45.6355C68.3331 45.6112 57.7572 41.4249 45.1467 36.3352C32.5363 31.2456 21.7264 26.8984 21.1229 26.6797C19.6484 26.1499 18.1044 26.2252 16.7421 26.8726C15.7399 27.3449 15.2229 27.945 10.059 34.6478C5.11314 41.0664 4.43081 42.0289 4.2044 43.0591C3.93447 44.244 4.02408 45.5732 4.41989 46.479Z" fill="white"/>
<path d="M12.2732 64.6037C12.6734 65.3812 16.4961 68.3908 40.1265 86.5484C70.0097 109.525 68.603 108.539 71.0511 108.217C73.2481 107.928 73.7817 107.454 78.146 101.793C82.5285 96.1078 82.9035 95.3986 82.6549 93.3453C82.2972 90.6252 84.2105 92.2255 54.5194 69.4156C39.7198 58.0365 27.0729 48.4604 26.3874 48.1035C25.2003 47.4933 25.1139 47.4834 23.3563 47.7145C21.787 47.9208 21.4395 48.0303 20.6895 48.6398C19.494 49.5845 12.2595 59.1564 11.8976 60.2895C11.5203 61.4673 11.6979 63.4661 12.2732 64.6037Z" fill="white"/>
<path d="M80.3745 105.629C80.848 105.992 81.9614 105.718 82.4994 105.115C82.8921 104.702 82.9763 104.372 82.8966 103.765C82.7122 102.363 82.3775 102.407 81.1808 103.99C80.3057 105.106 80.1378 105.447 80.3745 105.629Z" fill="white"/>
</svg>
