<svg width="23" height="23" viewBox="0 0 23 23" fill="none" xmlns="http://www.w3.org/2000/svg">
<path d="M20.7232 3.59375H2.15179C1.7567 3.59375 1.4375 3.89844 1.4375 4.27557V17.9119C1.4375 18.2891 1.7567 18.5938 2.15179 18.5938H20.7232C21.1183 18.5938 21.4375 18.2891 21.4375 17.9119V4.27557C21.4375 3.89844 21.1183 3.59375 20.7232 3.59375ZM18.9196 5.91406L11.8772 11.1449C11.7031 11.2749 11.4598 11.2749 11.2857 11.1449L4.24107 5.91406C4.21452 5.8945 4.19504 5.8675 4.18537 5.83684C4.1757 5.80617 4.17632 5.77339 4.18715 5.74309C4.19798 5.71278 4.21847 5.68647 4.24575 5.66784C4.27304 5.64921 4.30574 5.6392 4.33929 5.6392H18.8214C18.855 5.6392 18.8877 5.64921 18.915 5.66784C18.9422 5.68647 18.9627 5.71278 18.9736 5.74309C18.9844 5.77339 18.985 5.80617 18.9753 5.83684C18.9657 5.8675 18.9462 5.8945 18.9196 5.91406Z" fill="#4F4F4F"/>
</svg>
