<svg width="23" height="23" viewBox="0 0 23 23" fill="none" xmlns="http://www.w3.org/2000/svg">
<path d="M6.41889 10.3572C7.77889 13.03 9.97 15.2117 12.6428 16.5811L14.7206 14.5033C14.9756 14.2483 15.3533 14.1633 15.6839 14.2767C16.7417 14.6261 17.8844 14.815 19.0556 14.815C19.575 14.815 20 15.24 20 15.7594V19.0556C20 19.575 19.575 20 19.0556 20C10.1872 20 3 12.8128 3 3.94444C3 3.425 3.425 3 3.94444 3H7.25C7.76944 3 8.19444 3.425 8.19444 3.94444C8.19444 5.125 8.38333 6.25833 8.73278 7.31611C8.83667 7.64667 8.76111 8.015 8.49667 8.27944L6.41889 10.3572Z" fill="#4F4F4F"/>
</svg>
