<svg width="23" height="20" viewBox="0 0 23 20" fill="none" xmlns="http://www.w3.org/2000/svg">
<path d="M16.369 0.388977C14.273 0.388977 12.482 1.88298 11.498 2.91298C10.514 1.88298 8.727 0.388977 6.632 0.388977C3.021 0.388977 0.5 2.90598 0.5 6.50898C0.5 10.479 3.631 13.045 6.66 15.527C8.09 16.7 9.57 17.912 10.705 19.256C10.896 19.481 11.176 19.611 11.47 19.611H11.528C11.823 19.611 12.102 19.48 12.292 19.256C13.429 17.912 14.908 16.699 16.339 15.527C19.367 13.046 22.5 10.48 22.5 6.50898C22.5 2.90598 19.979 0.388977 16.369 0.388977Z" fill="black"/>
</svg>
