<svg width="27" height="27" viewBox="0 0 27 27" fill="none" xmlns="http://www.w3.org/2000/svg">
<g clip-path="url(#clip0_71_2260)">
<path d="M1.5835 4.83337V11.3334H8.0835" stroke="#333333" stroke-width="2" stroke-linecap="round" stroke-linejoin="round"/>
<path d="M25.4165 22.1666V15.6666H18.9165" stroke="#333333" stroke-width="2" stroke-linecap="round" stroke-linejoin="round"/>
<path d="M22.6977 10.25C22.1482 8.69735 21.2144 7.30919 19.9834 6.21504C18.7524 5.12089 17.2642 4.35641 15.6579 3.99295C14.0515 3.62948 12.3792 3.67887 10.797 4.13651C9.2149 4.59414 7.77447 5.44511 6.61016 6.61L1.5835 11.3333M25.4168 15.6667L20.3902 20.39C19.2259 21.5549 17.7854 22.4059 16.2033 22.8635C14.6211 23.3211 12.9489 23.3705 11.3425 23.0071C9.73608 22.6436 8.24795 21.8791 7.01692 20.785C5.78589 19.6908 4.85209 18.3026 4.30266 16.75" stroke="#333333" stroke-width="2" stroke-linecap="round" stroke-linejoin="round"/>
</g>
<defs>
<clipPath id="clip0_71_2260">
<rect width="26" height="26" fill="white" transform="translate(0.5 0.5)"/>
</clipPath>
</defs>
</svg>
