<svg width="20" height="20" viewBox="0 0 20 20" fill="none" xmlns="http://www.w3.org/2000/svg">
<path d="M15 13.4422C14.367 13.4422 13.796 13.6882 13.363 14.0842L7.425 10.6212C7.471 10.4332 7.5 10.2372 7.5 10.0372C7.5 9.8372 7.471 9.6422 7.425 9.4542L13.3 6.0252C13.76 6.45858 14.368 6.70002 15 6.7002C16.379 6.7002 17.5 5.5792 17.5 4.2002C17.5 2.8212 16.379 1.7002 15 1.7002C13.621 1.7002 12.5 2.8212 12.5 4.2002C12.5 4.4002 12.529 4.5962 12.575 4.7832L6.7 8.2122C6.23976 7.77924 5.63188 7.53788 5 7.5372C3.621 7.5372 2.5 8.6582 2.5 10.0372C2.5 11.4162 3.621 12.5372 5 12.5372C5.63197 12.537 6.24004 12.2956 6.7 11.8622L12.638 15.3252C12.5943 15.5039 12.5718 15.6872 12.571 15.8712C12.5712 16.3513 12.7137 16.8206 12.9806 17.2197C13.2475 17.6189 13.6267 17.9299 14.0703 18.1136C14.5139 18.2972 15.002 18.3452 15.4729 18.2515C15.9438 18.1578 16.3764 17.9266 16.7159 17.5871C17.0554 17.2476 17.2866 16.815 17.3803 16.3441C17.474 15.8732 17.426 15.3851 17.2424 14.9415C17.0587 14.4979 16.7477 14.1187 16.3485 13.8518C15.9494 13.5849 15.4801 13.4424 15 13.4422Z" fill="black"/>
</svg>
