<svg width="20" height="19" viewBox="0 0 20 19" fill="none" xmlns="http://www.w3.org/2000/svg">
<path d="M10.5 3.5C10.5 3.22386 10.2761 3 10 3C9.72386 3 9.5 3.22386 9.5 3.5L10.5 3.5ZM9.64645 15.8536C9.84171 16.0488 10.1583 16.0488 10.3536 15.8536L13.5355 12.6716C13.7308 12.4763 13.7308 12.1597 13.5355 11.9645C13.3403 11.7692 13.0237 11.7692 12.8284 11.9645L10 14.7929L7.17157 11.9645C6.97631 11.7692 6.65973 11.7692 6.46447 11.9645C6.2692 12.1597 6.2692 12.4763 6.46447 12.6716L9.64645 15.8536ZM9.5 3.5L9.5 15.5L10.5 15.5L10.5 3.5L9.5 3.5Z" fill="#333333"/>
</svg>
