<svg width="21" height="19" viewBox="0 0 21 19" fill="none" xmlns="http://www.w3.org/2000/svg">
<path d="M10.2485 15.5C10.2485 15.7761 10.4724 16 10.7485 16C11.0247 16 11.2485 15.7761 11.2485 15.5L10.2485 15.5ZM11.1021 3.14645C10.9068 2.95118 10.5902 2.95118 10.395 3.14645L7.213 6.32843C7.01774 6.52369 7.01774 6.84027 7.213 7.03553C7.40826 7.2308 7.72485 7.2308 7.92011 7.03553L10.7485 4.20711L13.577 7.03553C13.7722 7.2308 14.0888 7.2308 14.2841 7.03553C14.4793 6.84027 14.4793 6.52369 14.2841 6.32843L11.1021 3.14645ZM11.2485 15.5L11.2485 3.5L10.2485 3.5L10.2485 15.5L11.2485 15.5Z" fill="#333333"/>
</svg>
