<svg width="20" height="20" viewBox="0 0 20 20" fill="none" xmlns="http://www.w3.org/2000/svg">
<path d="M12.4829 1.70398C11.6839 0.866984 10.3909 1.31698 10.0519 2.29398C9.7719 3.09998 9.4079 4.06598 9.0539 4.77698C7.9939 6.90298 7.3759 8.11198 5.6699 9.62598C5.41986 9.8365 5.13535 10.0023 4.8289 10.116C3.6989 10.562 2.6389 11.732 2.9159 13.121L3.2689 14.886C3.35992 15.3414 3.57597 15.7624 3.89284 16.1019C4.20971 16.4413 4.61487 16.6858 5.0629 16.808L10.6629 18.335C11.2646 18.4988 11.8937 18.5359 12.5104 18.4437C13.1271 18.3516 13.718 18.1323 14.2454 17.7997C14.7729 17.4672 15.2255 17.0286 15.5745 16.5119C15.9236 15.9951 16.1614 15.4115 16.2729 14.798L16.9579 11.037C17.0366 10.6046 17.0193 10.1602 16.9072 9.73524C16.7952 9.31027 16.5912 8.91511 16.3096 8.5777C16.028 8.24029 15.6757 7.96887 15.2776 7.78264C14.8795 7.59641 14.4454 7.49992 14.0059 7.49998H13.1229L13.1329 7.44798C13.2129 7.03898 13.3089 6.47798 13.3729 5.86498C13.4379 5.25498 13.4729 4.57998 13.4219 3.95198C13.3719 3.33598 13.2379 2.70298 12.9179 2.22198C12.7872 2.03779 12.6417 1.86455 12.4829 1.70398Z" fill="#BDBDBD"/>
</svg>
