<svg width="20" height="20" viewBox="0 0 20 20" fill="none" xmlns="http://www.w3.org/2000/svg">
<path d="M12.4829 18.296C11.6839 19.133 10.3909 18.683 10.0519 17.706C9.7719 16.899 9.4079 15.934 9.0539 15.223C7.9939 13.097 7.3759 11.887 5.6699 10.373C5.41986 10.1625 5.13535 9.99677 4.8289 9.88305C3.6989 9.43705 2.6389 8.26805 2.9159 6.87905L3.2689 5.11405C3.35992 4.65867 3.57597 4.23765 3.89284 3.89817C4.20971 3.55869 4.61487 3.31418 5.0629 3.19205L10.6629 1.66505C11.2645 1.50117 11.8935 1.4641 12.5102 1.55618C13.1269 1.64826 13.7177 1.86748 14.2451 2.19994C14.7726 2.53241 15.2252 2.97085 15.5743 3.48748C15.9234 4.0041 16.1613 4.58763 16.2729 5.20105L16.9579 8.96305C17.0366 9.39543 17.0193 9.83982 16.9072 10.2648C16.7952 10.6898 16.5912 11.0849 16.3096 11.4223C16.028 11.7597 15.6757 12.0312 15.2776 12.2174C14.8795 12.4036 14.4454 12.5001 14.0059 12.5H13.1229L13.1329 12.552C13.2129 12.96 13.3089 13.522 13.3729 14.135C13.4379 14.745 13.4729 15.419 13.4219 16.047C13.3719 16.664 13.2379 17.297 12.9179 17.777C12.787 17.9614 12.6415 18.1349 12.4829 18.296Z" fill="#BDBDBD"/>
</svg>
